<?xml version="1.0" standalone="no"?>
<!DOCTYPE svg PUBLIC "-//W3C//DTD SVG 20010904//EN"
 "http://www.w3.org/TR/2001/REC-SVG-20010904/DTD/svg10.dtd">
<svg version="1.0" xmlns="http://www.w3.org/2000/svg"
 width="202.000000pt" height="202.000000pt" viewBox="0 0 202.000000 202.000000"
 preserveAspectRatio="xMidYMid meet">
<metadata>
Created by potrace 1.14, written by Peter Selinger 2001-2017
</metadata>
<g transform="translate(0.000000,202.000000) scale(0.100000,-0.100000)"
fill="#000000" stroke="none">
<path d="M372 1616 c-23 -8 -58 -26 -77 -40 -18 -14 -41 -26 -50 -26 -27 0
-63 -30 -70 -58 -4 -15 -26 -47 -49 -72 -91 -97 -132 -208 -122 -333 9 -112
15 -136 57 -219 50 -101 140 -165 272 -192 58 -12 73 -20 100 -51 17 -21 47
-48 65 -60 l34 -23 61 18 c34 10 77 24 96 31 29 12 35 12 39 1 8 -25 64 -83
126 -130 47 -36 67 -46 91 -43 60 7 71 7 110 -2 75 -18 135 0 135 40 0 29 63
4 133 -54 38 -31 51 -29 106 11 69 50 110 68 160 71 264 15 412 171 426 450 5
108 -8 161 -73 280 -5 11 -16 35 -22 52 -12 33 -66 93 -83 93 -5 0 -26 13 -46
29 -106 83 -224 114 -332 87 -146 -38 -277 -174 -295 -307 -6 -42 -10 -49 -28
-49 -19 0 -22 -5 -21 -47 1 -27 5 -62 9 -80 6 -28 1 -42 -42 -106 -70 -107
-78 -129 -62 -177 7 -21 30 -61 52 -90 21 -28 36 -55 33 -60 -9 -15 -76 -32
-104 -27 -25 5 -171 135 -171 152 0 5 25 34 55 66 30 32 56 66 56 76 5 65 -15
137 -58 205 -27 44 -28 54 -9 99 7 19 17 49 21 67 6 27 4 32 -13 32 -16 0 -20
10 -26 63 -7 71 -34 152 -65 196 -42 59 -120 111 -191 127 -58 14 -186 13
-228 0z m234 -151 c125 -81 163 -257 86 -398 -61 -113 -214 -227 -302 -227
-78 1 -175 68 -211 148 -41 90 -21 262 38 331 19 23 40 41 47 41 7 0 36 20 65
45 61 52 81 64 136 80 43 13 104 4 141 -20z m-360 4 c3 -6 2 -15 -2 -19 -12
-12 -38 5 -30 19 9 14 23 14 32 0z m1381 -162 c24 -11 65 -43 92 -71 27 -28
61 -59 76 -70 15 -10 39 -43 53 -74 21 -47 24 -64 19 -121 -11 -130 -72 -238
-160 -280 -24 -12 -71 -22 -109 -25 -64 -5 -70 -3 -120 30 -166 112 -247 325
-178 469 42 86 82 121 180 156 52 19 89 15 147 -14z m223 -21 c0 -16 -18 -31
-27 -22 -8 8 5 36 17 36 5 0 10 -6 10 -14z m-956 -741 c16 -15 26 -33 24 -45
-3 -18 -5 -18 -34 -4 -31 15 -59 56 -47 68 12 12 30 6 57 -19z m176 -60 c0 -8
-7 -15 -15 -15 -16 0 -20 12 -8 23 11 12 23 8 23 -8z"/>
</g>
</svg>
